<svg class="svg-icon" style="width: 1em; height: 1em;vertical-align: middle;fill: currentColor;overflow: hidden;" viewBox="0 0 1024 1024" version="1.1" xmlns="http://www.w3.org/2000/svg"><g fill="#1a73e8"><path d="M907.8 164.9L544.2 892.1c-6.4 13.3-17.2 19.8-32.4 19.8-1.9 0-4.8-0.4-8.5-1.2-8.3-1.9-15.1-6.2-20.2-12.8-5.1-6.5-7.6-14.1-7.6-22.5V548.3H148.3c-8.3 0-15.7-2.5-22.5-7.6-6.5-5.1-10.9-11.8-12.8-20.2-1.9-8.3-1.2-16.2 2.3-23.9 3.5-7.5 8.8-13.3 16.5-17.1L859 115.9c4.9-2.7 10.4-4 16.5-4 10.3 0 18.7 3.6 25.5 10.8 5.7 5.2 9.2 11.8 10.5 19.6 1.3 8 0.1 15.4-3.7 22.6z"  /></g></svg>