
<svg version="1.0" xmlns="http://www.w3.org/2000/svg"
 width="618.000000pt" height="980.000000pt" viewBox="0 0 618.000000 980.000000"
 preserveAspectRatio="xMidYMid meet">
<g transform="translate(0.000000,980.000000) scale(0.100000,-0.100000)"
fill="#f4f4f4" stroke="none">
<path d="M2875 9793 c-591 -49 -1113 -236 -1575 -566 -453 -323 -833 -792
-1045 -1291 -152 -358 -229 -700 -250 -1111 -22 -412 123 -988 457 -1820 474
-1178 1341 -2849 2410 -4642 116 -194 214 -353 218 -353 8 0 342 557 572 955
1488 2574 2376 4534 2497 5510 43 342 1 747 -116 1135 -213 707 -696 1336
-1328 1727 -495 307 -1067 467 -1650 461 -82 -1 -168 -3 -190 -5z m489 -708
c528 -62 1002 -288 1384 -660 216 -209 350 -394 482 -660 117 -237 187 -461
227 -725 21 -142 24 -481 4 -620 -66 -478 -250 -894 -555 -1256 -330 -392
-829 -688 -1329 -789 -190 -38 -287 -47 -487 -47 -383 0 -705 74 -1047 242
-396 194 -701 463 -945 829 -411 620 -507 1388 -263 2101 19 58 71 177 115
265 132 268 266 451 482 660 378 368 854 597 1371 659 153 19 405 19 561 1z"/>
<path d="M2207 7827 l-27 -11 2 -750 3 -750 98 -12 c191 -24 355 -102 468
-222 79 -84 116 -144 168 -277 l20 -50 0 783 1 784 -36 65 c-105 192 -282 362
-443 425 -64 25 -209 34 -254 15z"/>
<path d="M3895 7813 c-132 -15 -311 -72 -481 -153 -119 -56 -294 -162 -344
-207 -14 -13 -28 -23 -32 -23 -5 0 -8 -360 -8 -800 0 -440 2 -800 5 -800 3 0
15 9 27 20 12 11 40 32 62 47 23 15 43 30 46 33 3 3 14 10 25 17 11 6 56 34
100 61 212 130 509 237 713 258 l62 7 0 773 0 774 -72 -1 c-40 -1 -86 -4 -103
-6z"/>
<path d="M1810 6781 l0 -848 559 -187 560 -186 196 0 196 0 560 186 559 187 0
848 c0 467 -4 849 -8 849 -4 0 -12 -4 -18 -8 -5 -5 -38 -19 -74 -32 -36 -13
-71 -28 -77 -33 -10 -7 -13 -176 -15 -760 l-3 -752 -95 -31 c-52 -17 -149 -48
-215 -69 -66 -20 -129 -41 -140 -45 -11 -4 -74 -25 -140 -45 -66 -21 -169 -54
-230 -74 -104 -34 -112 -35 -150 -22 -51 17 -235 19 -294 2 -42 -12 -45 -11
-98 24 -84 56 -199 122 -225 130 -13 4 -28 11 -33 15 -6 5 -35 18 -65 29 -30
12 -64 26 -75 31 -33 15 -137 51 -180 62 -22 5 -49 14 -60 19 -19 8 -64 18
-187 41 l-58 11 0 712 c0 558 -3 715 -12 722 -7 5 -42 20 -78 33 -36 13 -69
27 -74 32 -6 4 -14 8 -18 8 -4 0 -8 -382 -8 -849z"/>
</g>
</svg>
